<?xml version="1.0" encoding="UTF-8" standalone="no"?>
<!DOCTYPE svg PUBLIC "-//W3C//DTD SVG 1.1//EN" "http://www.w3.org/Graphics/SVG/1.1/DTD/svg11.dtd">
<svg xmlns="http://www.w3.org/2000/svg" version="1.1" viewBox="0.00 0.00 327.00 327.00">
<g stroke-width="2.00" fill="none" stroke-linecap="butt">
<path stroke="#95762a" vector-effect="non-scaling-stroke" d="
  M 232.93 94.24
  L 230.81 91.66"
/>
<path stroke="#1e667c" vector-effect="non-scaling-stroke" d="
  M 244.21 104.58
  L 230.06 105.11"
/>
<path stroke="#1e667c" vector-effect="non-scaling-stroke" d="
  M 301.63 104.59
  Q 299.45 108.11 297.66 111.53
  C 290.85 124.50 283.31 137.10 276.25 149.61
  Q 275.56 150.83 275.15 152.21
  C 274.50 154.38 272.61 156.26 271.50 158.29
  Q 259.35 180.55 251.95 192.07
  Q 248.35 197.68 240.99 200.90
  Q 240.54 201.10 240.05 201.05
  Q 238.06 200.89 236.91 201.89"
/>
<path stroke="#789d60" vector-effect="non-scaling-stroke" d="
  M 259.27 147.68
  L 261.37 142.48"
/>
<path stroke="#95762a" vector-effect="non-scaling-stroke" d="
  M 249.18 103.18
  L 247.54 104.71"
/>
<path stroke="#789d60" vector-effect="non-scaling-stroke" d="
  M 247.54 104.71
  Q 245.88 104.37 244.21 104.58"
/>
<path stroke="#95762a" vector-effect="non-scaling-stroke" d="
  M 244.21 104.58
  L 243.51 104.50
  Q 242.98 104.43 242.91 103.90
  Q 242.87 103.63 242.96 103.31"
/>
<path stroke="#789d60" vector-effect="non-scaling-stroke" d="
  M 229.68 108.26
  Q 230.54 109.00 230.64 109.62
  Q 234.68 132.85 238.56 155.50
  Q 238.63 155.90 238.82 156.18
  Q 239.08 156.58 239.16 157.06
  Q 240.46 164.64 241.78 172.35
  Q 242.06 173.99 241.27 175.61
  C 238.92 180.45 234.37 187.72 228.02 186.75
  Q 226.27 186.48 224.46 186.77
  A 2.54 2.52 51.6 0 1 223.14 186.61
  Q 222.38 186.29 221.54 186.29
  A 0.78 0.77 -87.1 0 0 220.77 186.99
  L 219.50 199.49
  Q 219.44 200.09 220.02 200.26
  Q 228.46 202.71 236.91 201.89"
/>
<path stroke="#95762a" vector-effect="non-scaling-stroke" d="
  M 236.91 201.89
  Q 244.76 202.82 250.86 198.09
  Q 255.24 194.69 256.95 191.93
  Q 263.27 181.75 276.18 158.09"
/>
<path stroke="#95762a" vector-effect="non-scaling-stroke" d="
  M 247.55 202.60
  Q 245.78 203.97 244.21 204.02"
/>
<path stroke="#789d60" vector-effect="non-scaling-stroke" d="
  M 244.21 204.02
  Q 238.44 203.28 234.21 204.03
  Q 233.58 204.14 233.28 204.70
  L 222.03 225.85"
/>
<path stroke="#9c7d24" vector-effect="non-scaling-stroke" d="
  M 222.03 225.85
  L 219.03 204.35
  A 0.64 0.63 85.0 0 0 218.38 203.80
  L 214.02 203.94"
/>
<path stroke="#789d60" vector-effect="non-scaling-stroke" d="
  M 214.02 203.94
  L 205.94 203.93
  Q 205.02 203.93 205.18 204.84
  L 210.89 236.55"
/>
<path stroke="#9c7d24" vector-effect="non-scaling-stroke" d="
  M 147.66 240.41
  L 165.48 204.68
  Q 165.71 204.23 165.22 204.11
  Q 163.47 203.66 162.41 204.11"
/>
<path stroke="#789d60" vector-effect="non-scaling-stroke" d="
  M 162.41 204.11
  L 153.04 203.94
  Q 151.93 203.93 151.46 204.93
  L 143.37 222.38"
/>
<path stroke="#9c7d24" vector-effect="non-scaling-stroke" d="
  M 143.37 222.38
  L 142.52 204.35
  A 0.38 0.38 0.0 0 0 142.14 203.98
  L 138.97 203.97"
/>
<path stroke="#789d60" vector-effect="non-scaling-stroke" d="
  M 138.97 203.97
  L 130.02 204.08
  A 0.87 0.86 -76.5 0 0 129.25 204.56
  L 124.22 214.80"
/>
<path stroke="#95762a" vector-effect="non-scaling-stroke" d="
  M 124.22 214.80
  Q 122.17 212.23 119.84 210.16
  Q 118.56 209.02 118.88 205.43
  Q 119.01 203.95 117.53 204.06
  Q 115.45 204.22 113.10 203.39"
/>
<path stroke="#789d60" vector-effect="non-scaling-stroke" d="
  M 124.54 113.02
  L 112.05 173.18
  A 0.61 0.61 0.0 0 0 112.65 173.91
  L 129.93 173.95"
/>
<path stroke="#9c7d24" vector-effect="non-scaling-stroke" d="
  M 129.93 173.95
  L 134.78 173.98
  A 0.70 0.70 0.0 0 0 135.46 173.43
  L 154.26 83.91"
/>
<path stroke="#1e667c" vector-effect="non-scaling-stroke" d="
  M 265.69 202.98
  Q 261.52 202.79 259.25 203.23
  Q 246.94 205.60 247.23 218.10"
/>
<path stroke="#1e667c" vector-effect="non-scaling-stroke" d="
  M 214.55 255.77
  Q 218.77 250.55 220.08 248.09
  Q 232.15 225.44 235.93 219.20
  Q 242.16 208.89 244.21 204.02"
/>
<path stroke="#1e667c" vector-effect="non-scaling-stroke" d="
  M 266.46 131.72
  L 263.01 139.23"
/>
<path stroke="#95762a" vector-effect="non-scaling-stroke" d="
  M 258.39 138.98
  L 259.27 147.68"
/>
<path stroke="#1e667c" vector-effect="non-scaling-stroke" d="
  M 259.27 147.68
  L 256.01 155.44
  Q 255.00 157.83 254.80 155.25
  Q 254.09 146.22 252.74 136.71
  C 251.89 130.70 251.37 124.09 250.29 117.85
  C 249.63 114.02 249.66 110.20 248.72 106.38
  C 248.52 105.58 248.10 105.27 247.54 104.71"
/>
<path stroke="#256d76" vector-effect="non-scaling-stroke" d="
  M 214.02 203.94
  Q 215.50 204.75 215.74 206.50
  Q 217.30 218.06 218.57 228.52
  Q 218.75 230.03 218.87 231.22
  Q 218.90 231.50 219.15 231.38
  Q 219.28 231.32 219.39 231.46
  A 0.07 0.06 32.8 0 0 219.50 231.44
  Q 220.45 228.12 222.03 225.85"
/>
<path stroke="#256d76" vector-effect="non-scaling-stroke" d="
  M 150.76 78.51
  Q 141.98 117.41 139.90 128.15
  Q 136.80 144.11 133.32 159.99
  Q 133.30 160.10 132.17 166.57
  Q 131.45 170.67 129.93 173.95"
/>
<path stroke="#1e667c" vector-effect="non-scaling-stroke" d="
  M 124.99 108.36
  Q 127.63 101.97 128.38 93.53"
/>
<path stroke="#1e667c" vector-effect="non-scaling-stroke" d="
  M 113.16 203.71
  Q 116.16 205.04 115.89 210.26
  Q 115.64 215.04 117.78 227.19
  Q 117.88 227.76 118.13 227.24
  L 124.22 214.80"
/>
<path stroke="#256d76" vector-effect="non-scaling-stroke" d="
  M 138.97 203.97
  L 140.14 227.47
  Q 140.23 229.26 140.97 227.63
  L 143.37 222.38"
/>
<path stroke="#256d76" vector-effect="non-scaling-stroke" d="
  M 162.41 204.11
  L 144.22 240.96"
/>
<path stroke="#1e667c" vector-effect="non-scaling-stroke" d="
  M 132.93 237.79
  Q 133.53 231.54 131.66 225.48
  Q 131.52 225.01 131.63 224.52
  Q 132.13 222.34 132.04 220.49
  Q 131.92 218.15 130.64 220.12
  C 130.00 221.10 129.65 222.74 129.01 223.91
  Q 124.62 231.96 121.39 240.86"
/>
<path stroke="#789d60" vector-effect="non-scaling-stroke" d="
  M 120.97 241.74
  L 115.30 242.23"
/>
<path stroke="#1e667c" vector-effect="non-scaling-stroke" d="
  M 115.30 242.23
  Q 114.57 241.79 113.20 242.28"
/>
<path stroke="#789d60" vector-effect="non-scaling-stroke" d="
  M 109.09 231.02
  Q 109.26 229.04 108.42 226.60"
/>
<path stroke="#1e667c" vector-effect="non-scaling-stroke" d="
  M 276.93 205.36
  Q 280.48 210.10 280.27 213.60"
/>
<path stroke="#1e667c" vector-effect="non-scaling-stroke" d="
  M 275.86 222.38
  Q 280.79 230.62 274.29 239.40"
/>
<path stroke="#1e667c" vector-effect="non-scaling-stroke" d="
  M 106.80 203.14
  Q 105.46 205.33 105.89 208.13
  Q 106.37 211.22 106.39 213.04"
/>
<path stroke="#95762a" vector-effect="non-scaling-stroke" d="
  M 127.77 236.77
  Q 127.63 236.18 127.14 236.08
  Q 126.63 235.97 126.27 236.35
  Q 125.46 237.25 125.21 238.62"
/>
<path stroke="#95762a" vector-effect="non-scaling-stroke" d="
  M 113.75 243.55
  Q 114.64 243.05 115.30 242.23"
/>
<path stroke="#1e667c" vector-effect="non-scaling-stroke" d="
  M 98.83 80.39
  Q 109.74 86.59 111.10 97.28
  Q 112.21 106.02 109.75 113.78
  Q 107.23 121.72 102.71 126.38
  Q 96.73 132.54 90.00 134.81
  Q 87.60 135.62 77.76 137.83"
/>
<path stroke="#1e667c" vector-effect="non-scaling-stroke" d="
  M 54.82 137.81
  Q 53.80 137.19 51.36 137.58
  A 1.40 1.40 0.0 0 0 50.21 138.67
  L 42.61 173.39"
/>
<path stroke="#9c7d24" vector-effect="non-scaling-stroke" d="
  M 175.76 124.00
  L 180.39 123.94
  Q 180.89 123.94 181.07 123.47
  Q 183.41 117.46 190.25 116.62"
/>
<path stroke="#789d60" vector-effect="non-scaling-stroke" d="
  M 190.25 116.62
  Q 194.43 117.08 196.58 119.75
  C 198.52 122.15 197.87 125.71 197.08 128.38
  A 2.55 2.54 1.7 0 1 195.19 130.15
  Q 188.25 131.67 180.53 132.23
  C 171.57 132.88 163.24 133.68 156.19 140.00
  C 150.60 145.00 149.17 153.84 151.08 160.74
  Q 153.01 167.70 157.50 171.27
  Q 163.24 175.84 172.00 175.63"
/>
<path stroke="#9c7d24" vector-effect="non-scaling-stroke" d="
  M 172.00 175.63
  Q 182.73 176.29 190.87 169.97"
/>
<path stroke="#789d60" vector-effect="non-scaling-stroke" d="
  M 190.87 169.97
  L 191.48 172.88
  A 1.32 1.31 -5.6 0 0 192.77 173.93
  L 209.52 173.92"
/>
<path stroke="#9c7d24" vector-effect="non-scaling-stroke" d="
  M 209.52 173.92
  Q 211.48 174.24 214.16 173.80
  Q 214.67 173.71 214.56 173.21
  Q 212.75 164.43 214.14 156.67
  Q 215.91 146.71 218.76 134.42
  C 219.95 129.32 220.82 123.36 219.97 118.39
  C 218.09 107.45 207.19 103.26 197.23 103.12"
/>
<path stroke="#789d60" vector-effect="non-scaling-stroke" d="
  M 197.23 103.12
  Q 188.87 102.67 180.77 103.94
  Q 164.45 106.50 158.01 121.66
  A 0.60 0.59 13.9 0 0 158.51 122.48
  L 175.76 124.00"
/>
<path stroke="#256d76" vector-effect="non-scaling-stroke" d="
  M 197.23 103.12
  Q 198.15 103.53 199.00 104.33
  Q 199.36 104.67 199.86 104.59
  Q 200.24 104.54 200.59 104.65
  C 207.94 107.06 214.38 110.79 215.27 119.26
  Q 215.78 124.23 214.84 129.82
  Q 213.11 140.06 210.54 150.07
  Q 209.08 155.75 208.67 161.68
  Q 208.50 164.13 209.01 167.79
  Q 209.44 170.92 209.52 173.92"
/>
<path stroke="#256d76" vector-effect="non-scaling-stroke" d="
  M 190.87 169.97
  Q 191.11 168.10 190.38 167.31
  Q 190.02 166.92 189.64 167.28
  Q 182.23 174.36 172.00 175.63"
/>
<path stroke="#256d76" vector-effect="non-scaling-stroke" d="
  M 190.25 116.62
  Q 185.21 115.52 180.61 118.53
  Q 179.38 119.34 178.05 121.12
  Q 177.02 122.50 175.76 124.00"
/>
<path stroke="#9c7d24" vector-effect="non-scaling-stroke" d="
  M 175.26 214.48
  Q 177.07 214.81 178.28 214.50
  Q 178.77 214.37 179.04 213.96
  Q 180.67 211.54 183.15 210.56"
/>
<path stroke="#789d60" vector-effect="non-scaling-stroke" d="
  M 183.15 210.56
  Q 187.03 211.07 187.40 213.76
  C 187.62 215.32 187.44 217.69 185.40 218.00
  Q 179.11 218.96 173.37 219.51
  Q 169.53 219.87 166.67 221.54
  C 157.22 227.05 160.75 242.85 172.23 242.87"
/>
<path stroke="#9c7d24" vector-effect="non-scaling-stroke" d="
  M 172.23 242.87
  Q 178.19 243.44 183.16 240.93"
/>
<path stroke="#789d60" vector-effect="non-scaling-stroke" d="
  M 183.16 240.93
  Q 187.81 242.79 193.68 241.79"
/>
<path stroke="#9c7d24" vector-effect="non-scaling-stroke" d="
  M 193.68 241.79
  Q 195.31 242.18 197.10 241.96
  Q 197.64 241.89 197.53 241.36
  Q 196.53 236.51 197.34 232.12
  Q 198.57 225.51 200.08 218.62
  Q 201.16 213.68 200.60 211.45
  Q 198.75 204.08 190.46 203.55"
/>
<path stroke="#789d60" vector-effect="non-scaling-stroke" d="
  M 190.46 203.55
  Q 187.63 202.91 180.76 203.21
  Q 169.68 203.71 165.74 213.15
  Q 165.54 213.64 166.07 213.69
  L 175.26 214.48"
/>
<path stroke="#256d76" vector-effect="non-scaling-stroke" d="
  M 190.46 203.55
  Q 198.49 208.37 197.13 216.01
  Q 195.85 223.18 194.29 230.31
  Q 193.24 235.06 193.46 237.01
  Q 193.86 240.72 193.68 241.79"
/>
<path stroke="#256d76" vector-effect="non-scaling-stroke" d="
  M 183.16 240.93
  Q 184.18 238.86 182.17 239.18
  A 0.75 0.69 18.6 0 0 181.79 239.35
  Q 177.74 242.59 172.23 242.87"
/>
<path stroke="#256d76" vector-effect="non-scaling-stroke" d="
  M 183.15 210.56
  Q 178.91 209.06 175.26 214.48"
/>
<path stroke="#1e667c" vector-effect="non-scaling-stroke" d="
  M 63.22 94.44
  Q 61.45 94.21 60.39 94.56
  Q 59.37 94.90 59.14 95.96
  Q 56.86 106.33 54.85 116.13
  Q 54.42 118.21 54.33 120.43
  Q 54.31 120.94 54.77 121.17
  Q 56.59 122.09 58.08 121.24"
/>
<path stroke="#789d60" vector-effect="non-scaling-stroke" d="
  M 180.46 161.07
  Q 186.08 160.54 188.82 156.27
  Q 192.08 151.21 193.63 143.71
  Q 193.73 143.21 193.24 143.08
  Q 191.96 142.74 190.48 142.92"
/>
<path stroke="#256d76" vector-effect="non-scaling-stroke" d="
  M 190.48 142.92
  Q 183.98 142.53 177.49 144.43
  C 171.97 146.04 165.33 150.52 169.23 157.29
  Q 172.70 163.31 180.46 161.07"
/>
<path stroke="#9c7d24" vector-effect="non-scaling-stroke" d="
  M 190.48 142.92
  Q 187.30 143.76 184.12 144.38
  C 181.29 144.94 177.05 146.02 175.25 147.99
  Q 171.17 152.43 173.76 157.51
  Q 175.62 161.17 180.46 161.07"
/>
<path stroke="#789d60" vector-effect="non-scaling-stroke" d="
  M 176.57 234.62
  C 182.21 235.15 183.83 230.43 185.00 225.92
  Q 185.13 225.43 184.64 225.32
  Q 183.18 224.97 181.57 225.19"
/>
<path stroke="#256d76" vector-effect="non-scaling-stroke" d="
  M 181.57 225.19
  Q 179.14 224.40 175.86 225.59
  C 172.15 226.94 168.91 231.50 173.22 234.44
  Q 175.32 235.86 176.57 234.62"
/>
<path stroke="#9c7d24" vector-effect="non-scaling-stroke" d="
  M 181.57 225.19
  Q 179.81 225.97 178.18 226.45
  C 174.33 227.57 172.99 231.85 176.57 234.62"
/>
</g>
<path fill="#efac0d" d="
  M 232.93 94.24
  L 230.81 91.66
  L 288.05 40.02
  Q 289.20 38.99 290.09 40.25
  L 290.59 40.96
  Q 291.39 42.09 290.35 43.02
  L 232.93 94.24
  Z"
/>
<path fill="#efac0d" d="
  M 229.68 108.26
  Q 230.54 109.00 230.64 109.62
  Q 234.68 132.85 238.56 155.50
  Q 238.63 155.90 238.82 156.18
  Q 239.08 156.58 239.16 157.06
  Q 240.46 164.64 241.78 172.35
  Q 242.06 173.99 241.27 175.61
  C 238.92 180.45 234.37 187.72 228.02 186.75
  Q 226.27 186.48 224.46 186.77
  A 2.54 2.52 51.6 0 1 223.14 186.61
  Q 222.38 186.29 221.54 186.29
  A 0.78 0.77 -87.1 0 0 220.77 186.99
  L 219.50 199.49
  Q 219.44 200.09 220.02 200.26
  Q 228.46 202.71 236.91 201.89
  Q 244.76 202.82 250.86 198.09
  Q 255.24 194.69 256.95 191.93
  Q 263.27 181.75 276.18 158.09
  L 283.87 166.83
  Q 284.21 167.22 283.84 167.58
  L 247.55 202.60
  Q 245.78 203.97 244.21 204.02
  Q 238.44 203.28 234.21 204.03
  Q 233.58 204.14 233.28 204.70
  L 222.03 225.85
  L 219.03 204.35
  A 0.64 0.63 85.0 0 0 218.38 203.80
  L 214.02 203.94
  L 205.94 203.93
  Q 205.02 203.93 205.18 204.84
  L 210.89 236.55
  L 176.11 268.60
  A 0.60 0.59 -42.6 0 1 175.27 268.57
  Q 162.21 254.67 148.88 241.13
  Q 148.46 240.71 147.66 240.41
  L 165.48 204.68
  Q 165.71 204.23 165.22 204.11
  Q 163.47 203.66 162.41 204.11
  L 153.04 203.94
  Q 151.93 203.93 151.46 204.93
  L 143.37 222.38
  L 142.52 204.35
  A 0.38 0.38 0.0 0 0 142.14 203.98
  L 138.97 203.97
  L 130.02 204.08
  A 0.87 0.86 -76.5 0 0 129.25 204.56
  L 124.22 214.80
  Q 122.17 212.23 119.84 210.16
  Q 118.56 209.02 118.88 205.43
  Q 119.01 203.95 117.53 204.06
  Q 115.45 204.22 113.10 203.39
  Q 111.28 200.64 109.97 199.26
  Q 95.71 184.28 81.02 168.68
  C 78.78 166.30 76.80 163.70 74.61 161.25
  Q 74.20 160.79 74.67 160.39
  C 76.06 159.17 77.14 157.58 78.49 156.32
  Q 89.70 145.84 100.65 135.17
  C 105.69 130.25 112.74 124.07 118.58 118.08
  Q 120.37 116.24 124.54 113.02
  L 112.05 173.18
  A 0.61 0.61 0.0 0 0 112.65 173.91
  L 129.93 173.95
  L 134.78 173.98
  A 0.70 0.70 0.0 0 0 135.46 173.43
  L 154.26 83.91
  Q 155.77 83.40 156.65 82.64
  Q 169.57 71.50 181.56 59.38
  Q 182.29 58.63 183.01 59.40
  C 198.32 76.02 213.49 92.68 229.68 108.26
  Z
  M 175.76 124.00
  L 180.39 123.94
  Q 180.89 123.94 181.07 123.47
  Q 183.41 117.46 190.25 116.62
  Q 194.43 117.08 196.58 119.75
  C 198.52 122.15 197.87 125.71 197.08 128.38
  A 2.55 2.54 1.7 0 1 195.19 130.15
  Q 188.25 131.67 180.53 132.23
  C 171.57 132.88 163.24 133.68 156.19 140.00
  C 150.60 145.00 149.17 153.84 151.08 160.74
  Q 153.01 167.70 157.50 171.27
  Q 163.24 175.84 172.00 175.63
  Q 182.73 176.29 190.87 169.97
  L 191.48 172.88
  A 1.32 1.31 -5.6 0 0 192.77 173.93
  L 209.52 173.92
  Q 211.48 174.24 214.16 173.80
  Q 214.67 173.71 214.56 173.21
  Q 212.75 164.43 214.14 156.67
  Q 215.91 146.71 218.76 134.42
  C 219.95 129.32 220.82 123.36 219.97 118.39
  C 218.09 107.45 207.19 103.26 197.23 103.12
  Q 188.87 102.67 180.77 103.94
  Q 164.45 106.50 158.01 121.66
  A 0.60 0.59 13.9 0 0 158.51 122.48
  L 175.76 124.00
  Z
  M 175.26 214.48
  Q 177.07 214.81 178.28 214.50
  Q 178.77 214.37 179.04 213.96
  Q 180.67 211.54 183.15 210.56
  Q 187.03 211.07 187.40 213.76
  C 187.62 215.32 187.44 217.69 185.40 218.00
  Q 179.11 218.96 173.37 219.51
  Q 169.53 219.87 166.67 221.54
  C 157.22 227.05 160.75 242.85 172.23 242.87
  Q 178.19 243.44 183.16 240.93
  Q 187.81 242.79 193.68 241.79
  Q 195.31 242.18 197.10 241.96
  Q 197.64 241.89 197.53 241.36
  Q 196.53 236.51 197.34 232.12
  Q 198.57 225.51 200.08 218.62
  Q 201.16 213.68 200.60 211.45
  Q 198.75 204.08 190.46 203.55
  Q 187.63 202.91 180.76 203.21
  Q 169.68 203.71 165.74 213.15
  Q 165.54 213.64 166.07 213.69
  L 175.26 214.48
  Z"
/>
<path fill="#efac0d" d="
  M 249.18 103.18
  L 247.54 104.71
  Q 245.88 104.37 244.21 104.58
  L 243.51 104.50
  Q 242.98 104.43 242.91 103.90
  Q 242.87 103.63 242.96 103.31
  L 282.62 67.81
  Q 283.31 67.20 283.90 67.89
  L 285.04 69.23
  Q 285.63 69.91 284.97 70.52
  L 249.18 103.18
  Z"
/>
<path fill="#018db2" d="
  M 98.83 80.39
  Q 109.74 86.59 111.10 97.28
  Q 112.21 106.02 109.75 113.78
  Q 107.23 121.72 102.71 126.38
  Q 96.73 132.54 90.00 134.81
  Q 87.60 135.62 77.76 137.83
  L 54.82 137.81
  Q 53.80 137.19 51.36 137.58
  A 1.40 1.40 0.0 0 0 50.21 138.67
  L 42.61 173.39
  Q 33.26 174.14 24.29 173.47
  A 0.56 0.55 -84.6 0 1 23.78 172.85
  Q 24.11 170.46 24.60 168.09
  Q 32.99 127.95 41.34 87.79
  C 41.92 84.99 42.14 81.97 42.88 79.26
  A 1.32 1.32 0.0 0 1 44.14 78.30
  Q 64.08 78.22 84.75 78.24
  Q 92.90 78.25 98.83 80.39
  Z
  M 58.08 121.24
  C 64.53 121.72 74.08 122.11 80.93 119.59
  C 88.84 116.67 95.39 106.43 90.75 98.23
  Q 89.49 96.00 86.67 95.30
  Q 83.45 94.51 80.76 94.37
  Q 71.37 93.91 63.22 94.44
  Q 61.45 94.21 60.39 94.56
  Q 59.37 94.90 59.14 95.96
  Q 56.86 106.33 54.85 116.13
  Q 54.42 118.21 54.33 120.43
  Q 54.31 120.94 54.77 121.17
  Q 56.59 122.09 58.08 121.24
  Z"
/>
<path fill="#018db2" d="
  M 150.76 78.51
  Q 141.98 117.41 139.90 128.15
  Q 136.80 144.11 133.32 159.99
  Q 133.30 160.10 132.17 166.57
  Q 131.45 170.67 129.93 173.95
  L 112.65 173.91
  A 0.61 0.61 0.0 0 1 112.05 173.18
  L 124.54 113.02
  Q 125.23 111.34 124.99 108.36
  Q 127.63 101.97 128.38 93.53
  L 131.67 79.96
  Q 132.06 78.36 133.71 78.37
  L 150.76 78.51
  Z"
/>
<path fill="#494d3a" d="
  M 150.76 78.51
  Q 154.19 78.37 154.26 83.91
  L 135.46 173.43
  A 0.70 0.70 0.0 0 1 134.78 173.98
  L 129.93 173.95
  Q 131.45 170.67 132.17 166.57
  Q 133.30 160.10 133.32 159.99
  Q 136.80 144.11 139.90 128.15
  Q 141.98 117.41 150.76 78.51
  Z"
/>
<path fill="#3a3f46" d="
  M 98.83 80.39
  Q 104.34 80.65 108.19 84.08
  Q 113.03 88.39 114.84 94.01
  C 115.68 96.62 115.62 99.33 116.12 101.98
  Q 116.39 103.39 117.69 102.79
  Q 118.29 102.51 118.82 102.08
  Q 123.71 98.09 128.38 93.53
  Q 127.63 101.97 124.99 108.36
  Q 120.79 112.02 116.88 115.24
  Q 113.34 118.14 110.84 120.80
  C 108.12 123.69 105.23 127.35 101.87 129.39
  Q 96.97 132.35 93.66 135.59
  C 88.82 140.35 84.16 145.99 78.79 150.48
  C 75.88 152.91 72.29 156.11 70.24 159.43
  A 2.24 2.23 -47.8 0 0 70.36 161.96
  Q 74.48 167.41 79.14 172.61
  Q 91.05 185.92 103.48 198.76
  Q 104.68 200.00 106.80 203.14
  Q 105.46 205.33 105.89 208.13
  Q 106.37 211.22 106.39 213.04
  Q 105.19 211.67 105.74 208.95
  A 0.98 0.97 -4.4 0 0 104.44 207.84
  Q 103.95 208.03 103.96 208.68
  Q 103.96 209.34 103.31 209.25
  Q 102.11 209.10 101.43 208.29
  Q 95.79 201.56 91.53 197.05
  Q 74.71 179.27 60.91 164.52
  Q 59.23 162.72 57.85 160.73
  A 1.59 1.58 51.7 0 1 58.09 158.65
  Q 66.26 151.24 74.18 143.66
  C 75.93 141.98 77.99 140.57 80.06 139.36
  Q 80.62 139.03 80.10 138.66
  Q 79.15 137.99 77.76 137.83
  Q 87.60 135.62 90.00 134.81
  Q 96.73 132.54 102.71 126.38
  Q 107.23 121.72 109.75 113.78
  Q 112.21 106.02 111.10 97.28
  Q 109.74 86.59 98.83 80.39
  Z"
/>
<path fill="#3a3f46" d="
  M 230.81 91.66
  L 232.93 94.24
  Q 235.49 96.92 239.61 102.61
  Q 240.79 104.24 242.96 103.31
  Q 242.87 103.63 242.91 103.90
  Q 242.98 104.43 243.51 104.50
  L 244.21 104.58
  L 230.06 105.11
  Q 230.07 104.27 229.36 103.40
  Q 225.46 98.70 221.38 94.16
  A 1.37 1.37 0.0 0 1 221.46 92.25
  L 224.79 89.12
  Q 225.18 88.75 225.71 88.82
  Q 228.13 89.12 230.81 91.66
  Z"
/>
<path fill="#3a3f46" d="
  M 63.22 94.44
  Q 61.99 108.01 58.08 121.24
  Q 56.59 122.09 54.77 121.17
  Q 54.31 120.94 54.33 120.43
  Q 54.42 118.21 54.85 116.13
  Q 56.86 106.33 59.14 95.96
  Q 59.37 94.90 60.39 94.56
  Q 61.45 94.21 63.22 94.44
  Z"
/>
<path fill="#3a3f46" d="
  M 266.46 131.72
  L 263.01 139.23
  Q 261.53 136.40 258.72 135.38
  Q 258.22 135.20 258.02 135.70
  Q 257.43 137.21 258.39 138.98
  L 259.27 147.68
  L 256.01 155.44
  Q 255.00 157.83 254.80 155.25
  Q 254.09 146.22 252.74 136.71
  C 251.89 130.70 251.37 124.09 250.29 117.85
  C 249.63 114.02 249.66 110.20 248.72 106.38
  C 248.52 105.58 248.10 105.27 247.54 104.71
  L 249.18 103.18
  Q 249.68 103.95 251.01 104.43
  C 254.34 105.64 253.57 108.93 254.03 111.57
  A 0.77 0.77 0.0 0 0 255.29 112.02
  L 274.60 95.41
  A 1.50 1.49 -42.4 0 1 276.65 95.50
  L 277.10 95.97
  Q 278.52 97.44 276.96 98.77
  L 256.37 116.34
  A 1.99 1.98 -42.5 0 0 256.24 119.23
  C 259.57 122.65 264.81 127.15 265.19 132.13
  Q 265.24 132.72 265.77 132.45
  Q 266.11 132.27 266.46 131.72
  Z"
/>
<path fill="#018db2" d="
  M 197.23 103.12
  Q 198.15 103.53 199.00 104.33
  Q 199.36 104.67 199.86 104.59
  Q 200.24 104.54 200.59 104.65
  C 207.94 107.06 214.38 110.79 215.27 119.26
  Q 215.78 124.23 214.84 129.82
  Q 213.11 140.06 210.54 150.07
  Q 209.08 155.75 208.67 161.68
  Q 208.50 164.13 209.01 167.79
  Q 209.44 170.92 209.52 173.92
  L 192.77 173.93
  A 1.32 1.31 -5.6 0 1 191.48 172.88
  L 190.87 169.97
  Q 191.11 168.10 190.38 167.31
  Q 190.02 166.92 189.64 167.28
  Q 182.23 174.36 172.00 175.63
  Q 163.24 175.84 157.50 171.27
  Q 153.01 167.70 151.08 160.74
  C 149.17 153.84 150.60 145.00 156.19 140.00
  C 163.24 133.68 171.57 132.88 180.53 132.23
  Q 188.25 131.67 195.19 130.15
  A 2.55 2.54 1.7 0 0 197.08 128.38
  C 197.87 125.71 198.52 122.15 196.58 119.75
  Q 194.43 117.08 190.25 116.62
  Q 185.21 115.52 180.61 118.53
  Q 179.38 119.34 178.05 121.12
  Q 177.02 122.50 175.76 124.00
  L 158.51 122.48
  A 0.60 0.59 13.9 0 1 158.01 121.66
  Q 164.45 106.50 180.77 103.94
  Q 188.87 102.67 197.23 103.12
  Z
  M 180.46 161.07
  Q 186.08 160.54 188.82 156.27
  Q 192.08 151.21 193.63 143.71
  Q 193.73 143.21 193.24 143.08
  Q 191.96 142.74 190.48 142.92
  Q 183.98 142.53 177.49 144.43
  C 171.97 146.04 165.33 150.52 169.23 157.29
  Q 172.70 163.31 180.46 161.07
  Z"
/>
<path fill="#494d3a" d="
  M 197.23 103.12
  C 207.19 103.26 218.09 107.45 219.97 118.39
  C 220.82 123.36 219.95 129.32 218.76 134.42
  Q 215.91 146.71 214.14 156.67
  Q 212.75 164.43 214.56 173.21
  Q 214.67 173.71 214.16 173.80
  Q 211.48 174.24 209.52 173.92
  Q 209.44 170.92 209.01 167.79
  Q 208.50 164.13 208.67 161.68
  Q 209.08 155.75 210.54 150.07
  Q 213.11 140.06 214.84 129.82
  Q 215.78 124.23 215.27 119.26
  C 214.38 110.79 207.94 107.06 200.59 104.65
  Q 200.24 104.54 199.86 104.59
  Q 199.36 104.67 199.00 104.33
  Q 198.15 103.53 197.23 103.12
  Z"
/>
<path fill="#018db2" d="
  M 301.63 104.59
  Q 299.45 108.11 297.66 111.53
  C 290.85 124.50 283.31 137.10 276.25 149.61
  Q 275.56 150.83 275.15 152.21
  C 274.50 154.38 272.61 156.26 271.50 158.29
  Q 259.35 180.55 251.95 192.07
  Q 248.35 197.68 240.99 200.90
  Q 240.54 201.10 240.05 201.05
  Q 238.06 200.89 236.91 201.89
  Q 228.46 202.71 220.02 200.26
  Q 219.44 200.09 219.50 199.49
  L 220.77 186.99
  A 0.78 0.77 -87.1 0 1 221.54 186.29
  Q 222.38 186.29 223.14 186.61
  A 2.54 2.52 51.6 0 0 224.46 186.77
  Q 226.27 186.48 228.02 186.75
  C 234.37 187.72 238.92 180.45 241.27 175.61
  Q 242.06 173.99 241.78 172.35
  Q 240.46 164.64 239.16 157.06
  Q 239.08 156.58 238.82 156.18
  Q 238.63 155.90 238.56 155.50
  Q 234.68 132.85 230.64 109.62
  Q 230.54 109.00 229.68 108.26
  Q 230.28 107.19 230.06 105.11
  L 244.21 104.58
  Q 245.88 104.37 247.54 104.71
  C 248.10 105.27 248.52 105.58 248.72 106.38
  C 249.66 110.20 249.63 114.02 250.29 117.85
  C 251.37 124.09 251.89 130.70 252.74 136.71
  Q 254.09 146.22 254.80 155.25
  Q 255.00 157.83 256.01 155.44
  L 259.27 147.68
  L 261.37 142.48
  Q 262.38 141.84 263.01 139.23
  L 266.46 131.72
  Q 267.80 130.54 268.68 128.97
  Q 274.88 117.79 280.93 106.33
  A 3.28 3.27 13.8 0 1 283.83 104.58
  L 301.63 104.59
  Z"
/>
<path fill="#3a3f46" d="
  M 301.63 104.59
  L 304.47 105.25
  Q 305.69 105.53 305.05 106.60
  Q 292.99 126.80 283.06 145.46
  A 2.56 2.56 0.0 0 0 283.45 148.40
  L 300.63 166.88
  Q 301.60 167.92 300.55 168.88
  Q 282.47 185.43 265.87 201.37
  Q 265.17 202.04 265.69 202.98
  Q 261.52 202.79 259.25 203.23
  Q 246.94 205.60 247.23 218.10
  Q 240.28 224.91 233.68 231.19
  C 230.71 234.02 228.62 238.06 226.44 241.58
  C 223.24 246.74 220.86 253.74 214.55 255.77
  Q 218.77 250.55 220.08 248.09
  Q 232.15 225.44 235.93 219.20
  Q 242.16 208.89 244.21 204.02
  Q 245.78 203.97 247.55 202.60
  Q 247.79 207.01 252.65 204.61
  A 1.24 1.23 -3.1 0 0 253.27 203.92
  Q 253.89 202.14 254.53 201.52
  C 261.99 194.29 269.08 186.96 277.03 180.05
  Q 283.23 174.66 288.45 168.05
  A 0.76 0.75 -38.8 0 0 288.54 167.26
  Q 288.05 166.22 287.31 165.28
  Q 283.61 160.65 279.92 157.09
  Q 278.47 155.68 276.47 155.69
  Q 275.94 155.69 275.78 156.20
  Q 275.46 157.28 276.18 158.09
  Q 263.27 181.75 256.95 191.93
  Q 255.24 194.69 250.86 198.09
  Q 244.76 202.82 236.91 201.89
  Q 238.06 200.89 240.05 201.05
  Q 240.54 201.10 240.99 200.90
  Q 248.35 197.68 251.95 192.07
  Q 259.35 180.55 271.50 158.29
  C 272.61 156.26 274.50 154.38 275.15 152.21
  Q 275.56 150.83 276.25 149.61
  C 283.31 137.10 290.85 124.50 297.66 111.53
  Q 299.45 108.11 301.63 104.59
  Z
  M 259.9254 201.6989
  A 2.23 0.41 -10.1 0 0 257.6581 201.6864
  A 2.23 0.41 -10.1 0 0 255.5346 202.4811
  A 2.23 0.41 -10.1 0 0 257.8019 202.4936
  A 2.23 0.41 -10.1 0 0 259.9254 201.6989
  Z"
/>
<path fill="#494d3a" d="
  M 190.25 116.62
  Q 183.41 117.46 181.07 123.47
  Q 180.89 123.94 180.39 123.94
  L 175.76 124.00
  Q 177.02 122.50 178.05 121.12
  Q 179.38 119.34 180.61 118.53
  Q 185.21 115.52 190.25 116.62
  Z"
/>
<path fill="#3a3f46" d="
  M 54.82 137.81
  L 47.35 172.42
  Q 47.24 172.91 46.74 172.96
  L 42.61 173.39
  L 50.21 138.67
  A 1.40 1.40 0.0 0 1 51.36 137.58
  Q 53.80 137.19 54.82 137.81
  Z"
/>
<path fill="#efac0d" d="
  M 258.39 138.98
  L 261.37 142.48
  L 259.27 147.68
  L 258.39 138.98
  Z"
/>
<path fill="#494d3a" d="
  M 190.48 142.92
  Q 187.30 143.76 184.12 144.38
  C 181.29 144.94 177.05 146.02 175.25 147.99
  Q 171.17 152.43 173.76 157.51
  Q 175.62 161.17 180.46 161.07
  Q 172.70 163.31 169.23 157.29
  C 165.33 150.52 171.97 146.04 177.49 144.43
  Q 183.98 142.53 190.48 142.92
  Z"
/>
<path fill="#efac0d" d="
  M 190.48 142.92
  Q 191.96 142.74 193.24 143.08
  Q 193.73 143.21 193.63 143.71
  Q 192.08 151.21 188.82 156.27
  Q 186.08 160.54 180.46 161.07
  Q 175.62 161.17 173.76 157.51
  Q 171.17 152.43 175.25 147.99
  C 177.05 146.02 181.29 144.94 184.12 144.38
  Q 187.30 143.76 190.48 142.92
  Z"
/>
<path fill="#494d3a" d="
  M 190.87 169.97
  Q 182.73 176.29 172.00 175.63
  Q 182.23 174.36 189.64 167.28
  Q 190.02 166.92 190.38 167.31
  Q 191.11 168.10 190.87 169.97
  Z"
/>
<path fill="#018db2" d="
  M 265.69 202.98
  Q 272.22 203.27 276.93 205.36
  Q 280.48 210.10 280.27 213.60
  L 271.73 213.98
  A 1.19 1.16 67.7 0 1 270.78 213.57
  C 267.92 210.14 260.72 207.81 258.63 213.53
  Q 258.45 214.02 258.75 214.46
  Q 260.42 216.87 261.87 217.17
  Q 269.39 218.72 275.86 222.38
  Q 280.79 230.62 274.29 239.40
  Q 262.97 245.48 249.80 240.33
  Q 246.46 239.03 244.36 236.60
  Q 242.66 234.64 242.03 232.16
  Q 241.91 231.67 242.39 231.50
  Q 246.83 229.87 251.04 230.28
  Q 251.56 230.33 251.97 230.64
  Q 253.32 231.66 254.56 232.87
  C 257.46 235.68 261.40 236.52 265.09 234.62
  Q 268.26 233.00 267.20 230.15
  Q 267.01 229.63 266.54 229.32
  C 262.31 226.47 256.43 225.78 252.61 223.65
  Q 250.04 222.22 247.23 218.10
  Q 246.94 205.60 259.25 203.23
  Q 261.52 202.79 265.69 202.98
  Z"
/>
<path fill="#018db2" d="
  M 190.46 203.55
  Q 198.49 208.37 197.13 216.01
  Q 195.85 223.18 194.29 230.31
  Q 193.24 235.06 193.46 237.01
  Q 193.86 240.72 193.68 241.79
  Q 187.81 242.79 183.16 240.93
  Q 184.18 238.86 182.17 239.18
  A 0.75 0.69 18.6 0 0 181.79 239.35
  Q 177.74 242.59 172.23 242.87
  C 160.75 242.85 157.22 227.05 166.67 221.54
  Q 169.53 219.87 173.37 219.51
  Q 179.11 218.96 185.40 218.00
  C 187.44 217.69 187.62 215.32 187.40 213.76
  Q 187.03 211.07 183.15 210.56
  Q 178.91 209.06 175.26 214.48
  L 166.07 213.69
  Q 165.54 213.64 165.74 213.15
  Q 169.68 203.71 180.76 203.21
  Q 187.63 202.91 190.46 203.55
  Z
  M 176.57 234.62
  C 182.21 235.15 183.83 230.43 185.00 225.92
  Q 185.13 225.43 184.64 225.32
  Q 183.18 224.97 181.57 225.19
  Q 179.14 224.40 175.86 225.59
  C 172.15 226.94 168.91 231.50 173.22 234.44
  Q 175.32 235.86 176.57 234.62
  Z"
/>
<path fill="#018db2" d="
  M 106.80 203.14
  Q 109.83 204.30 113.16 203.71
  Q 116.16 205.04 115.89 210.26
  Q 115.64 215.04 117.78 227.19
  Q 117.88 227.76 118.13 227.24
  L 124.22 214.80
  L 129.25 204.56
  A 0.87 0.86 -76.5 0 1 130.02 204.08
  L 138.97 203.97
  L 140.14 227.47
  Q 140.23 229.26 140.97 227.63
  L 143.37 222.38
  L 151.46 204.93
  Q 151.93 203.93 153.04 203.94
  L 162.41 204.11
  L 144.22 240.96
  Q 140.89 242.25 135.16 241.36
  Q 134.31 241.23 133.99 240.43
  L 132.93 237.79
  Q 133.53 231.54 131.66 225.48
  Q 131.52 225.01 131.63 224.52
  Q 132.13 222.34 132.04 220.49
  Q 131.92 218.15 130.64 220.12
  C 130.00 221.10 129.65 222.74 129.01 223.91
  Q 124.62 231.96 121.39 240.86
  Q 121.03 241.25 120.97 241.74
  L 115.30 242.23
  Q 114.57 241.79 113.20 242.28
  Q 112.04 242.16 111.20 241.59
  Q 110.78 241.30 110.77 240.79
  Q 110.71 236.03 109.09 231.02
  Q 109.26 229.04 108.42 226.60
  Q 108.57 219.19 106.39 213.04
  Q 106.37 211.22 105.89 208.13
  Q 105.46 205.33 106.80 203.14
  Z"
/>
<path fill="#3a3f46" d="
  M 113.10 203.39
  Q 115.45 204.22 117.53 204.06
  Q 119.01 203.95 118.88 205.43
  Q 118.56 209.02 119.84 210.16
  Q 122.17 212.23 124.22 214.80
  L 118.13 227.24
  Q 117.88 227.76 117.78 227.19
  Q 115.64 215.04 115.89 210.26
  Q 116.16 205.04 113.16 203.71
  Q 112.94 203.96 113.10 203.39
  Z"
/>
<path fill="#494d3a" d="
  M 190.46 203.55
  Q 198.75 204.08 200.60 211.45
  Q 201.16 213.68 200.08 218.62
  Q 198.57 225.51 197.34 232.12
  Q 196.53 236.51 197.53 241.36
  Q 197.64 241.89 197.10 241.96
  Q 195.31 242.18 193.68 241.79
  Q 193.86 240.72 193.46 237.01
  Q 193.24 235.06 194.29 230.31
  Q 195.85 223.18 197.13 216.01
  Q 198.49 208.37 190.46 203.55
  Z"
/>
<path fill="#018db2" d="
  M 214.02 203.94
  Q 215.50 204.75 215.74 206.50
  Q 217.30 218.06 218.57 228.52
  Q 218.75 230.03 218.87 231.22
  Q 218.90 231.50 219.15 231.38
  Q 219.28 231.32 219.39 231.46
  A 0.07 0.06 32.8 0 0 219.50 231.44
  Q 220.45 228.12 222.03 225.85
  L 233.28 204.70
  Q 233.58 204.14 234.21 204.03
  Q 238.44 203.28 244.21 204.02
  Q 242.16 208.89 235.93 219.20
  Q 232.15 225.44 220.08 248.09
  Q 218.77 250.55 214.55 255.77
  Q 208.31 258.63 200.55 256.31
  Q 199.91 256.12 199.85 255.46
  C 199.65 253.30 199.64 249.94 202.53 249.48
  Q 213.73 247.69 210.89 236.55
  L 205.18 204.84
  Q 205.02 203.93 205.94 203.93
  L 214.02 203.94
  Z"
/>
<path fill="#494d3a" d="
  M 222.03 225.85
  Q 220.45 228.12 219.50 231.44
  A 0.07 0.06 32.8 0 1 219.39 231.46
  Q 219.28 231.32 219.15 231.38
  Q 218.90 231.50 218.87 231.22
  Q 218.75 230.03 218.57 228.52
  Q 217.30 218.06 215.74 206.50
  Q 215.50 204.75 214.02 203.94
  L 218.38 203.80
  A 0.64 0.63 85.0 0 1 219.03 204.35
  L 222.03 225.85
  Z"
/>
<path fill="#494d3a" d="
  M 138.97 203.97
  L 142.14 203.98
  A 0.38 0.38 0.0 0 1 142.52 204.35
  L 143.37 222.38
  L 140.97 227.63
  Q 140.23 229.26 140.14 227.47
  L 138.97 203.97
  Z"
/>
<path fill="#494d3a" d="
  M 162.41 204.11
  Q 163.47 203.66 165.22 204.11
  Q 165.71 204.23 165.48 204.68
  L 147.66 240.41
  Q 146.24 239.78 144.22 240.96
  L 162.41 204.11
  Z"
/>
<path fill="#3a3f46" d="
  M 276.93 205.36
  Q 282.38 207.04 283.57 211.51
  Q 283.70 212.01 283.29 212.31
  Q 281.90 213.34 280.27 213.60
  Q 280.48 210.10 276.93 205.36
  Z"
/>
<path fill="#494d3a" d="
  M 183.15 210.56
  Q 180.67 211.54 179.04 213.96
  Q 178.77 214.37 178.28 214.50
  Q 177.07 214.81 175.26 214.48
  Q 178.91 209.06 183.15 210.56
  Z"
/>
<path fill="#3a3f46" d="
  M 102.73 216.10
  L 82.36 234.11
  A 0.70 0.70 0.0 0 1 81.33 233.99
  L 79.82 231.91
  A 0.70 0.70 0.0 0 1 79.93 230.97
  L 102.69 211.22
  A 0.70 0.70 0.0 0 1 103.83 211.91
  L 102.95 215.73
  A 0.70 0.70 0.0 0 1 102.73 216.10
  Z"
/>
<path fill="#3a3f46" d="
  M 132.93 237.79
  Q 130.21 237.87 127.77 236.77
  Q 127.63 236.18 127.14 236.08
  Q 126.63 235.97 126.27 236.35
  Q 125.46 237.25 125.21 238.62
  Q 124.69 237.53 123.91 238.41
  Q 122.78 239.66 121.39 240.86
  Q 124.62 231.96 129.01 223.91
  C 129.65 222.74 130.00 221.10 130.64 220.12
  Q 131.92 218.15 132.04 220.49
  Q 132.13 222.34 131.63 224.52
  Q 131.52 225.01 131.66 225.48
  Q 133.53 231.54 132.93 237.79
  Z"
/>
<path fill="#3a3f46" d="
  M 275.86 222.38
  Q 280.60 223.40 280.89 229.00
  Q 281.28 236.48 274.29 239.40
  Q 280.79 230.62 275.86 222.38
  Z"
/>
<path fill="#494d3a" d="
  M 181.57 225.19
  Q 179.81 225.97 178.18 226.45
  C 174.33 227.57 172.99 231.85 176.57 234.62
  Q 175.32 235.86 173.22 234.44
  C 168.91 231.50 172.15 226.94 175.86 225.59
  Q 179.14 224.40 181.57 225.19
  Z"
/>
<path fill="#efac0d" d="
  M 176.57 234.62
  C 172.99 231.85 174.33 227.57 178.18 226.45
  Q 179.81 225.97 181.57 225.19
  Q 183.18 224.97 184.64 225.32
  Q 185.13 225.43 185.00 225.92
  C 183.83 230.43 182.21 235.15 176.57 234.62
  Z"
/>
<path fill="#efac0d" d="
  M 108.42 226.60
  Q 109.26 229.04 109.09 231.02
  L 76.74 259.81
  A 1.20 1.19 46.9 0 1 75.09 259.75
  L 73.98 258.61
  Q 73.16 257.77 74.04 256.99
  L 108.42 226.60
  Z"
/>
<path fill="#efac0d" d="
  M 127.77 236.77
  L 125.21 238.62
  Q 125.46 237.25 126.27 236.35
  Q 126.63 235.97 127.14 236.08
  Q 127.63 236.18 127.77 236.77
  Z"
/>
<path fill="#494d3a" d="
  M 183.16 240.93
  Q 178.19 243.44 172.23 242.87
  Q 177.74 242.59 181.79 239.35
  A 0.75 0.69 18.6 0 1 182.17 239.18
  Q 184.18 238.86 183.16 240.93
  Z"
/>
<path fill="#efac0d" d="
  M 120.97 241.74
  Q 121.43 242.04 120.70 242.71
  Q 99.89 261.77 78.66 280.67
  Q 75.75 283.26 73.18 285.50
  Q 72.76 285.86 72.39 285.44
  L 70.89 283.66
  Q 70.54 283.25 70.89 282.84
  Q 72.24 281.25 75.13 278.63
  Q 95.19 260.53 111.20 246.46
  Q 112.04 245.73 113.75 243.55
  Q 114.64 243.05 115.30 242.23
  L 120.97 241.74
  Z"
/>
<path fill="#3a3f46" d="
  M 115.30 242.23
  Q 114.64 243.05 113.75 243.55
  Q 113.63 242.76 113.20 242.28
  Q 114.57 241.79 115.30 242.23
  Z"
/>
</svg>
